<?xml version="1.0" encoding="utf-8"?>
<!-- Generator: Adobe Illustrator 28.0.0, SVG Export Plug-In . SVG Version: 6.00 Build 0)  -->
<svg version="1.1" id="Camada_1" xmlns="http://www.w3.org/2000/svg" xmlns:xlink="http://www.w3.org/1999/xlink" x="0px" y="0px"
	 viewBox="0 0 254.9 69.2" style="enable-background:new 0 0 254.9 69.2;" xml:space="preserve">
<style type="text/css">
	.st0{fill:#232323;}
	.st1{fill:#4677FF;}
</style>
<path class="st0" d="M17.3,13.3l10.9,27.5l10.9-27.5h12.7l-19,45.1h-9.3l-19-45.1H17.3z"/>
<path class="st0" d="M122.1,23.2v35.2h-11.7V23.2H97.9v-9.9h36.6v9.9H122.1z"/>
<path class="st0" d="M158.1,50.6h-16.7l-2.7,7.8h-12.5l17.2-45.1h12.8l17.2,45.1h-12.5L158.1,50.6z M155,41.7l-5.3-15l-5.3,15H155z"
	/>
<path class="st0" d="M250.9,23.2h-16.8v7.5h13.2v9.9h-13.2v7.8h16.8v9.9h-28.5V13.3h28.5V23.2z"/>
<path class="st1" d="M91.6,18c-0.3-0.3-0.7-0.3-0.9,0l-14,16l-5.8-7.8c-0.5-0.5-1.2-0.5-1.7,0L64,31.2c-0.5,0.5-0.5,1.2,0,1.7
	l11.2,11.2c0.8,0.8,2.1,0.8,2.9,0l9.1-9.1l8.3-8.3c0.8-0.8,1-2,0.5-3C94.8,21.6,93.3,19.7,91.6,18z"/>
<path class="st0" d="M220.3,36.3c0-0.1,0-0.3,0-0.4h0l0-0.4c0-1.1-0.9-2.1-2.1-2.1l-12.8,0l-6.6,0c-1.1,0-2.2,0.7-2.5,1.8
	c-0.7,2.3-1,4.7-1,7.1c0,0.4,0.3,0.7,0.7,0.7h9.7c-0.4,0.6-0.9,1.2-1.5,1.7c-1.2,1.1-2.5,2-4.1,2.6c-1.5,0.6-3.2,0.9-4.9,0.9
	c-1.7,0-3.3-0.3-4.9-0.9c-1.5-0.6-2.9-1.5-4-2.6c-1.2-1.1-2.1-2.4-2.8-3.9c-0.7-1.5-1-3.2-1-5s0.3-3.4,1-5c0.7-1.5,1.6-2.8,2.8-3.9
	c1.2-1.1,2.5-2,4-2.6c1.5-0.6,3.2-0.9,4.9-0.9c1.7,0,3.3,0.3,4.9,0.9c1.5,0.6,2.9,1.5,4.1,2.6c0.9,0.9,1.7,1.8,2.3,2.9l10.3-6.5
	c-1-1.6-2.1-3.1-3.5-4.4c-2.2-2.2-4.9-3.8-7.9-5.1c-3.1-1.2-6.4-1.8-10-1.8c-3.7,0-7,0.6-10.1,1.8c-3.1,1.2-5.7,2.9-7.9,5.1
	c-2.2,2.2-3.9,4.7-5.1,7.6c-1.2,2.9-1.9,6-1.9,9.4c0,3.3,0.6,6.5,1.9,9.4c1.2,2.9,3,5.4,5.1,7.6c2.2,2.2,4.8,3.8,7.9,5.1
	c3.1,1.2,6.4,1.8,10.1,1.8c3.6,0,7-0.6,10-1.8c3.1-1.2,5.7-2.9,7.9-5.1c2.2-2.2,3.9-4.7,5.2-7.6c1.1-2.7,1.7-5.5,1.8-8.6
	c0,0,0,0,0,0L220.3,36.3z"/>
<path class="st0" d="M82.3,46c-2.3,1.8-5.1,2.9-8.3,2.9c-7.3,0-13.2-5.9-13.2-13.2S66.7,22.4,74,22.4c1.9,0,3.7,0.4,5.4,1.2L88,15
	c-4-2.7-8.8-4.3-14-4.3c-13.8,0-25,11.2-25,25s11.2,25,25,25s25-11.2,25-25c0-1.9-0.2-3.8-0.7-5.6L82.3,46z"/>
</svg>
