<?xml version="1.0" encoding="utf-8"?>
<!-- Generator: Adobe Illustrator 28.0.0, SVG Export Plug-In . SVG Version: 6.00 Build 0)  -->
<svg version="1.1" id="Camada_1" xmlns="http://www.w3.org/2000/svg" xmlns:xlink="http://www.w3.org/1999/xlink" x="0px" y="0px"
	 viewBox="0 0 254.9 78.7" style="enable-background:new 0 0 254.9 78.7;" xml:space="preserve">
<style type="text/css">
	.st0{fill:#E5005A;}
</style>
<path d="M19.8,10.2l9,22.7c0.4,0.9,1.7,0.9,2.1,0L40,10.2c0.2-0.4,0.6-0.7,1-0.7h9.6c0.8,0,1.3,0.8,1,1.5L34.6,51.6
	c-0.2,0.4-0.6,0.7-1,0.7h-7.4c-0.4,0-0.9-0.3-1-0.7l-17-40.5c-0.3-0.7,0.2-1.5,1-1.5h9.6C19.3,9.5,19.7,9.8,19.8,10.2z"/>
<path d="M160,51.6l-9-22.7c-0.4-0.9-1.7-0.9-2.1,0l-9.1,22.7c-0.2,0.4-0.6,0.7-1,0.7h-9.6c-0.8,0-1.3-0.8-1-1.5l17.1-40.5
	c0.2-0.4,0.6-0.7,1-0.7h7.4c0.4,0,0.9,0.3,1,0.7l17,40.5c0.3,0.7-0.2,1.5-1,1.5H161C160.5,52.3,160.1,52,160,51.6z"/>
<path class="st0" d="M127.7,23.2h7c1,0,1.9-0.6,2.3-1.5l5.1-12.2H86.9c-1.2,0-2.4,0.7-2.9,1.9l-3,7.2c-0.9,2.2,0.7,4.7,3.1,4.7h23.1
	L85.9,73.7L127.7,23.2z"/>
<path d="M246.9,18.9h-15.7c-0.4,0-0.7,0.3-0.7,0.7v5.7c0,0.4,0.3,0.7,0.7,0.7h11c0.4,0,0.7,0.3,0.7,0.7v7.9c0,0.4-0.3,0.7-0.7,0.7
	h-11c-0.4,0-0.7,0.3-0.7,0.7v5.9c0,0.4,0.3,0.7,0.7,0.7h15.7c0.4,0,0.7,0.3,0.7,0.7v7.9c0,0.4-0.3,0.7-0.7,0.7H220
	c-0.4,0-0.7-0.3-0.7-0.7V10.3c0-0.4,0.3-0.7,0.7-0.7h26.9c0.4,0,0.7,0.3,0.7,0.7v7.9C247.6,18.6,247.3,18.9,246.9,18.9z"/>
<path d="M215,30.9h-4.4h-6.1h-9.9l7.6,7.1c-0.4,0.5-0.8,1-1.2,1.4c-1.1,1.1-2.4,1.9-3.9,2.5c-1.5,0.6-3,0.9-4.6,0.9
	c-1.6,0-3.2-0.3-4.6-0.9c-1.5-0.6-2.7-1.4-3.8-2.5c-1.1-1.1-2-2.3-2.6-3.7c-0.6-1.4-1-3-1-4.7c0-1.7,0.3-3.3,1-4.7
	c0.6-1.4,1.5-2.7,2.6-3.7c1.1-1.1,2.4-1.9,3.8-2.5c1.5-0.6,3-0.9,4.6-0.9c1.6,0,3.2,0.3,4.6,0.9c1.5,0.6,2.7,1.4,3.9,2.5
	c0.9,0.8,1.6,1.8,2.2,2.9c0.2,0.4,0.7,0.7,1.2,0.7h9.6c0.9,0,1.6-0.9,1.3-1.7c-0.2-0.8-0.5-1.6-0.8-2.3c-1.2-2.7-2.8-5.1-4.9-7.2
	c-2.1-2-4.6-3.6-7.5-4.8c-2.9-1.2-6.1-1.7-9.5-1.7c-3.5,0-6.7,0.6-9.6,1.7c-2.9,1.2-5.4,2.8-7.5,4.8c-2.1,2-3.7,4.4-4.9,7.2
	c-1.2,2.7-1.8,5.7-1.8,8.9s0.6,6.1,1.8,8.9c1.2,2.7,2.8,5.1,4.9,7.2c2.1,2,4.6,3.6,7.5,4.8c2.9,1.2,6.1,1.7,9.6,1.7
	c3.4,0,6.6-0.6,9.5-1.7c2.9-1.2,5.4-2.8,7.5-4.8s3.7-4.4,4.9-7.2c1-2.4,1.6-5,1.7-7.8C216.1,31.4,215.6,30.9,215,30.9z"/>
<path d="M88.8,47c2.1-2,3.7-4.4,4.9-7.2c1.2-2.7,1.8-5.7,1.8-8.9c0-1.6-0.2-3.2-0.5-4.7H84.1c-0.4,0-0.9-0.1-1.3-0.1
	c0,0,0,0.1,0.1,0.1c0.6,1.4,1,3,1,4.7c0,1.7-0.3,3.3-1,4.7c-0.6,1.4-1.5,2.7-2.6,3.7c-1.1,1.1-2.4,1.9-3.9,2.5
	c-1.5,0.6-3,0.9-4.6,0.9c-1.6,0-3.2-0.3-4.6-0.9c-1.5-0.6-2.7-1.4-3.8-2.5c-1.1-1.1-2-2.3-2.6-3.7c-0.6-1.4-1-3-1-4.7
	c0-1.7,0.3-3.3,1-4.7c0.6-1.4,1.5-2.7,2.6-3.7c1.1-1.1,2.4-1.9,3.8-2.5c1.5-0.6,3-0.9,4.6-0.9c1.6,0,3.2,0.3,4.6,0.9
	c0.5,0.2,1,0.4,1.5,0.7c-0.1-1.1,0-2.2,0.4-3.3l3-7.2c0-0.1,0.1-0.1,0.1-0.2c0,0-0.1,0-0.1,0c-2.9-1.2-6.1-1.7-9.5-1.7
	c-3.5,0-6.7,0.6-9.6,1.7c-2.9,1.2-5.4,2.8-7.5,4.8c-2.1,2-3.7,4.4-4.9,7.2c-1.2,2.7-1.8,5.7-1.8,8.9s0.6,6.1,1.8,8.9
	c1.2,2.7,2.8,5.1,4.9,7.2c2.1,2,4.6,3.6,7.5,4.8c2.9,1.2,6.1,1.7,9.6,1.7c3.4,0,6.6-0.6,9.5-1.7C84.2,50.6,86.7,49,88.8,47z"/>
</svg>
